<svg width="644" height="644" viewBox="0 0 644 644" fill="none" xmlns="http://www.w3.org/2000/svg">
<rect width="644" height="644" fill="#1E1E1E"/>
<path d="M184.406 186.055H125.027V215.259H154.512V246.52H215.119V215.259H184.406V186.055Z" fill="#FF8800"/>
<path d="M215.119 246.52V276.959H243.375V246.52H215.119Z" fill="#FF8800"/>
<path d="M215.119 186.055V157.261H184.406V186.055H215.119Z" fill="#FF8800"/>
<path fill-rule="evenodd" clip-rule="evenodd" d="M98 397.891V488.795H154.102V458.768H245.013V488.795H184.815V518H273.678V488.795H397.349V397.891H454.68V428.741H486.212V397.891H516.925V366.63H546V215.259H516.925V186.055H486.212V157.261H428.062V126H399.806V157.261H365.817V186.055H337.561V246.52H365.817V279.427H337.561V246.52H303.982V215.259H273.678V186.055H215.119V215.259H243.375V246.52H276.545V308.22H246.651V339.893H216.757V368.275H154.512V397.891H98ZM273.678 337.014V369.509H303.982V337.014H273.678Z" fill="#FF8800"/>
<path d="M154.512 368.275V337.014H125.027V308.22H100.457V368.275H154.512Z" fill="#FF8800"/>
</svg>
