<svg preserveAspectRatio="none" overflow="visible" style="display: block;" width="34.834" height="36.907" viewBox="0 0 34.834 36.907" fill="none" xmlns="http://www.w3.org/2000/svg">
<g id="Group 222">
<path id="Vector" d="M17.4152 26.1953C18.9753 26.1953 20.4691 26.3281 21.8135 26.5605C23.1579 26.7928 24.3861 27.1248 25.4152 27.5563C26.4442 27.9878 27.2741 28.4692 27.8384 29.0169C28.4027 29.5646 28.7347 30.1787 28.7347 30.8094C28.7347 31.4401 28.4193 32.0542 27.8384 32.6019C27.2575 33.1497 26.4442 33.6476 25.4152 34.0625C24.3861 34.4775 23.1745 34.8094 21.8135 35.0418C20.4525 35.2741 18.9753 35.4069 17.4152 35.4069C15.855 35.4069 14.3612 35.2741 13.0169 35.0418C11.6725 34.8094 10.4442 34.4775 9.4152 34.0459C8.38615 33.6144 7.55628 33.1331 6.99197 32.5853C6.42765 32.0376 6.0957 31.4235 6.0957 30.7928C6.0957 30.4941 6.16209 30.1953 6.31147 29.8965C6.46085 29.5978 6.66002 29.3322 6.90898 29.0667C7.15794 28.8011 7.48989 28.5522 7.87163 28.3032" stroke="#008EE7" stroke-width="3" stroke-miterlimit="10" stroke-linecap="round" stroke-linejoin="round"/>
<path id="Vector_2" d="M1.5 19.6891C1.5 16.104 8.63691 13.2161 17.417 13.2161C26.2136 13.2161 33.334 16.1372 33.334 19.7057C33.334 23.2741 26.197 26.1787 17.417 26.1787C8.62032 26.1787 1.5 23.2575 1.5 19.6891Z" stroke="#008EE7" stroke-width="3" stroke-miterlimit="10" stroke-linejoin="round"/>
<path id="Vector_3" d="M17.416 26.1953C23.6733 26.1953 28.7355 28.27 28.7355 30.8094C28.7355 33.3488 23.6733 35.4235 17.416 35.4069" stroke="#008EE7" stroke-width="3" stroke-miterlimit="10" stroke-linejoin="round"/>
<path id="Vector_4" d="M17.417 7.58C19.097 7.58 20.457 6.22 20.457 4.54C20.457 2.86 19.097 1.5 17.417 1.5C15.737 1.5 14.377 2.86 14.377 4.54C14.377 6.22 15.737 7.58 17.417 7.58Z" stroke="#008EE7" stroke-width="3" stroke-linejoin="round"/>
<path id="Vector_5" d="M27.3076 10.58C28.9876 10.58 30.3476 9.22 30.3476 7.54C30.3476 5.86 28.9876 4.5 27.3076 4.5C25.6276 4.5 24.2676 5.86 24.2676 7.54C24.2676 9.22 25.6276 10.58 27.3076 10.58Z" stroke="#008EE7" stroke-width="3" stroke-linejoin="round"/>
<path id="Vector_6" d="M7.54195 10.58C9.22195 10.58 10.582 9.22 10.582 7.54C10.582 5.86 9.22195 4.5 7.54195 4.5C5.86195 4.5 4.50195 5.86 4.50195 7.54C4.50195 9.22 5.86195 10.58 7.54195 10.58Z" stroke="#008EE7" stroke-width="3" stroke-linejoin="round"/>
</g>
</svg>
