<?xml version="1.0" encoding="UTF-8"?> <svg xmlns="http://www.w3.org/2000/svg" viewBox="0 0 151.19 26.13"><g id="f53fe114-6c0e-4783-a2e2-bd1581dc26e2" data-name="Layer 2"><g id="b32d294d-884c-4165-918e-e4d732c96c98" data-name="Capa 1"><g><path d="M0,0H8.79L19.68,15.77,30.46,0H39.2V25.67H32.11V8.32L22.17,23.07H17.08L7.09,8.32V25.67H0Z" fill="#002e6d"></path><path d="M70.27,24l-1.84-3.33H52.25l-2.75,5H41.36L56.54,0h8.14l9.81,16.92ZM54.85,16h11l-5.49-10Z" fill="#002e6d"></path><path d="M118.06,17,127.87,0H136l15.18,25.67h-8.14l-2.75-5H124.12l-1.84,3.32ZM132.16,6.1l-5.49,10h11Z" fill="#002e6d"></path><polygon points="89.18 26.13 89.2 26.13 89.19 26.12 89.18 26.13" fill="#fff"></polygon><polygon points="112.22 12.29 119.45 0 112.19 0 107.63 7.85 103.1 0 95.45 0 102.71 12.54 97.73 20.95 100.5 25.67 102.6 25.67 107.63 17.13 112.75 25.67 120.07 25.67 112.22 12.29" fill="#ff9015"></polygon><path d="M73,0H80.6l4.53,7.85L89.79,0H92l2.54,4.34-4.8,7.94,7.85,13.39H90.25l-5.12-8.54-5,8.54H72.42l7.79-13.13Z" fill="#ff5100"></path></g></g></g></svg> 