<svg width="2178" height="396" viewBox="0 0 2178 396" fill="none" xmlns="http://www.w3.org/2000/svg">
<path d="M0 396H96.1678V271.548H303.799V0H0V396ZM96.1678 91.6562H207.631V179.914H96.1678V91.6562Z" fill="#333333"/>
<path d="M351.872 396H449.188L553.588 0H456.273L351.872 396Z" fill="#333333"/>
<path d="M863.303 148.221H711.116V0H614.926V396H711.116V239.856H863.303V396H959.47V0H863.303V148.221Z" fill="#333333"/>
<path d="M1038.64 190.64V205.36L1089.14 396H1186.46L1135.96 205.36V190.64L1186.46 0H1089.14L1038.64 190.64Z" fill="#333333"/>
<path d="M1288.12 91.6562H1472.56V148.221H1288.12V396H1568.75V304.344H1384.31V239.856H1568.75V0H1288.12V91.6562Z" fill="#333333"/>
<path d="M1647.92 239.856H1832.35V304.344H1647.92V396H1928.52V148.221H1744.09V91.6562H1928.52V0H1647.92V239.856Z" fill="#333333"/>
<path d="M2030.18 0L2080.68 190.64V205.36L2030.18 396H2127.48L2178 205.36V190.64L2127.48 0H2030.18Z" fill="#333333"/>
</svg>
