<svg xmlns="http://www.w3.org/2000/svg" width="277.09" height="60.31"><defs><clipPath id="aa" clipPathUnits="userSpaceOnUse"><path d="M0 64.79V-.61h299.4v65.4"/></clipPath><clipPath id="Z" clipPathUnits="userSpaceOnUse"><path d="M0 64.79V-.61h299.4v65.4"/></clipPath><clipPath id="Y" clipPathUnits="userSpaceOnUse"><path d="M0 64.79V-.54h299.02V64.8"/></clipPath><clipPath id="X" clipPathUnits="userSpaceOnUse"><path d="M0 64.79V-.54h299.02V64.8"/></clipPath><clipPath id="W" clipPathUnits="userSpaceOnUse"><path d="M0 64.79V-.61h299.4v65.4" clip-rule="evenodd"/></clipPath><clipPath id="V" clipPathUnits="userSpaceOnUse"><path d="M0 64.79V-.61h299.4v65.4" clip-rule="evenodd"/></clipPath><clipPath id="U" clipPathUnits="userSpaceOnUse"><path d="M0 64.79V-.61h299.4v65.4" clip-rule="evenodd"/></clipPath><clipPath id="T" clipPathUnits="userSpaceOnUse"><path d="M0 64.79V-.61h299.4v65.4" clip-rule="evenodd"/></clipPath><clipPath id="S" clipPathUnits="userSpaceOnUse"><path d="M0 64.79V-.61h299.4v65.4" clip-rule="evenodd"/></clipPath><clipPath id="R" clipPathUnits="userSpaceOnUse"><path d="M0 64.79V-.61h299.4v65.4" clip-rule="evenodd"/></clipPath><clipPath id="Q" clipPathUnits="userSpaceOnUse"><path d="M0 64.79V-.61h299.4v65.4" clip-rule="evenodd"/></clipPath><clipPath id="P" clipPathUnits="userSpaceOnUse"><path d="M0 64.79V-.61h299.4v65.4" clip-rule="evenodd"/></clipPath><clipPath id="O" clipPathUnits="userSpaceOnUse"><path d="M0 64.79V-.61h299.4v65.4" clip-rule="evenodd"/></clipPath><clipPath id="N" clipPathUnits="userSpaceOnUse"><path d="M0 64.79V-.61h299.4v65.4" clip-rule="evenodd"/></clipPath><clipPath id="M" clipPathUnits="userSpaceOnUse"><path d="M0 64.79V-.61h299.4v65.4" clip-rule="evenodd"/></clipPath><clipPath id="L" clipPathUnits="userSpaceOnUse"><path d="M0 64.79V-.61h299.4v65.4" clip-rule="evenodd"/></clipPath><clipPath id="K" clipPathUnits="userSpaceOnUse"><path d="M0 64.79V-.61h299.4v65.4" clip-rule="evenodd"/></clipPath><clipPath id="J" clipPathUnits="userSpaceOnUse"><path d="M0 64.79V-.61h299.4v65.4" clip-rule="evenodd"/></clipPath><clipPath id="I" clipPathUnits="userSpaceOnUse"><path d="M0 64.79V-.61h299.4v65.4" clip-rule="evenodd"/></clipPath><clipPath id="H" clipPathUnits="userSpaceOnUse"><path d="M0 64.79V-.61h299.4v65.4" clip-rule="evenodd"/></clipPath><clipPath id="G" clipPathUnits="userSpaceOnUse"><path d="M0 64.79V-.61h299.4v65.4" clip-rule="evenodd"/></clipPath><clipPath id="F" clipPathUnits="userSpaceOnUse"><path d="M0 64.79V-.61h299.4v65.4" clip-rule="evenodd"/></clipPath><clipPath id="E" clipPathUnits="userSpaceOnUse"><path d="M0 64.79V-.61h299.4v65.4" clip-rule="evenodd"/></clipPath><clipPath id="D" clipPathUnits="userSpaceOnUse"><path d="M0 64.79V-.61h299.4v65.4" clip-rule="evenodd"/></clipPath><clipPath id="C" clipPathUnits="userSpaceOnUse"><path d="M0 64.79V-.61h299.4v65.4" clip-rule="evenodd"/></clipPath><clipPath id="B" clipPathUnits="userSpaceOnUse"><path d="M0 64.79V-.61h299.4v65.4" clip-rule="evenodd"/></clipPath><clipPath id="A" clipPathUnits="userSpaceOnUse"><path d="M0 64.79V-.61h299.4v65.4" clip-rule="evenodd"/></clipPath><clipPath id="z" clipPathUnits="userSpaceOnUse"><path d="M0 64.79V-.61h299.4v65.4" clip-rule="evenodd"/></clipPath><clipPath id="y" clipPathUnits="userSpaceOnUse"><path d="M0 64.79V-.61h299.4v65.4" clip-rule="evenodd"/></clipPath><clipPath id="x" clipPathUnits="userSpaceOnUse"><path d="M0 64.79V-.61h299.4v65.4" clip-rule="evenodd"/></clipPath><clipPath id="w" clipPathUnits="userSpaceOnUse"><path d="M0 64.79V-.61h299.4v65.4" clip-rule="evenodd"/></clipPath><clipPath id="v" clipPathUnits="userSpaceOnUse"><path d="M0 64.79V-.61h299.4v65.4" clip-rule="evenodd"/></clipPath><clipPath id="u" clipPathUnits="userSpaceOnUse"><path d="M0 64.79V-.61h299.4v65.4" clip-rule="evenodd"/></clipPath><clipPath id="t" clipPathUnits="userSpaceOnUse"><path d="M0 64.79V-.61h299.4v65.4" clip-rule="evenodd"/></clipPath><clipPath id="s" clipPathUnits="userSpaceOnUse"><path d="M0 64.79V-.61h299.4v65.4" clip-rule="evenodd"/></clipPath><clipPath id="r" clipPathUnits="userSpaceOnUse"><path d="M0 64.79V-.61h299.4v65.4" clip-rule="evenodd"/></clipPath><clipPath id="q" clipPathUnits="userSpaceOnUse"><path d="M0 64.79V-.61h299.4v65.4" clip-rule="evenodd"/></clipPath><clipPath id="p" clipPathUnits="userSpaceOnUse"><path d="M0 64.79V-.61h299.4v65.4" clip-rule="evenodd"/></clipPath><clipPath id="o" clipPathUnits="userSpaceOnUse"><path d="M0 64.79V-.61h299.4v65.4" clip-rule="evenodd"/></clipPath><clipPath id="n" clipPathUnits="userSpaceOnUse"><path d="M0 64.79V-.61h299.4v65.4" clip-rule="evenodd"/></clipPath><clipPath id="m" clipPathUnits="userSpaceOnUse"><path d="M0 64.79V-.61h299.4v65.4" clip-rule="evenodd"/></clipPath><clipPath id="l" clipPathUnits="userSpaceOnUse"><path d="M0 64.79V-.61h299.4v65.4" clip-rule="evenodd"/></clipPath><clipPath id="k" clipPathUnits="userSpaceOnUse"><path d="M0 64.79V-.61h299.4v65.4" clip-rule="evenodd"/></clipPath><clipPath id="j" clipPathUnits="userSpaceOnUse"><path d="M0 64.79V-.61h299.4v65.4" clip-rule="evenodd"/></clipPath><clipPath id="i" clipPathUnits="userSpaceOnUse"><path d="M0 64.79V-.61h299.4v65.4" clip-rule="evenodd"/></clipPath><clipPath id="d" clipPathUnits="userSpaceOnUse"><path d="M0 64.79V-.61h299.4v65.4" clip-rule="evenodd"/></clipPath><clipPath id="c" clipPathUnits="userSpaceOnUse"><path d="M0 64.79V-.61h299.4v65.4" clip-rule="evenodd"/></clipPath><clipPath id="b" clipPathUnits="userSpaceOnUse"><path d="M0 0h298.79v64.79H0z"/></clipPath><clipPath id="a" clipPathUnits="userSpaceOnUse"><path d="M0 744.6h400.44v60.24H0z" clip-rule="evenodd"/></clipPath></defs><g clip-path="url(#a)" transform="matrix(1.22293 0 0 -1.22293 -44.07 984.92)"><g clip-path="url(#b)" transform="matrix(.74281 0 0 .74473 38.49 756.59)"><g clip-path="url(#c)"><path d="M184.4 63.59h1.35V52.55h-1.35z" style="fill:#4e4e4e;fill-opacity:1;fill-rule:nonzero;stroke:none"/></g><g clip-path="url(#d)"><path d="M187.55 63.59h1.72l3.68-9.24v9.24h1.35V52.55h-1.8l-3.6 8.93v-8.93h-1.35z" style="fill:#4e4e4e;fill-opacity:1;fill-rule:nonzero;stroke:none"/></g><g clip-path="url(#i)"><path d="M200.83 60.73c0 1.13-.38 1.96-1.73 1.96-1.13 0-1.8-.68-1.8-1.8 0-3.16 5.18-1.28 5.18-5.34 0-2.55-1.88-3.23-3.38-3.23-2.63 0-3.38 1.28-3.38 3.68h1.35c0-1.27.08-2.55 2.1-2.55 1.06 0 1.88.75 1.88 1.95 0 3.08-5.18 1.28-5.18 5.33 0 1.05.45 3 3.23 3 2.1 0 3.08-1.05 3.08-3z" style="fill:#4e4e4e;fill-opacity:1;fill-rule:nonzero;stroke:none"/></g><g clip-path="url(#j)"><path d="M207.28 52.55h-1.35v9.84h-2.78v1.2h6.9v-1.2h-2.77z" style="fill:#4e4e4e;fill-opacity:1;fill-rule:nonzero;stroke:none"/></g><g clip-path="url(#k)"><path d="M211.25 63.59h1.35V52.55h-1.35z" style="fill:#4e4e4e;fill-opacity:1;fill-rule:nonzero;stroke:none"/></g><g clip-path="url(#l)"><path d="M217.85 52.55h-1.35v9.84h-2.77v1.2h6.9v-1.2h-2.78z" style="fill:#4e4e4e;fill-opacity:1;fill-rule:nonzero;stroke:none"/></g><g clip-path="url(#m)"><path d="M221.76 63.59h1.35v-7.81c0-1.58.52-2.33 1.87-2.33 1.43 0 1.88.83 1.88 2.33v7.8h1.35v-7.8c0-2.1-1.13-3.46-3.23-3.46-2.25 0-3.22 1.2-3.22 3.46z" style="fill:#4e4e4e;fill-opacity:1;fill-rule:nonzero;stroke:none"/></g><g clip-path="url(#n)"><path d="M233.38 52.55h-1.35v9.84h-2.77v1.2h6.9v-1.2h-2.78z" style="fill:#4e4e4e;fill-opacity:1;fill-rule:nonzero;stroke:none"/></g><g clip-path="url(#o)"><path d="M240.89 63.59h1.8l3.6-9.24h.07v9.24h1.35V52.55h-1.87l-3.53 8.93h-.07v-8.93h-1.35z" style="fill:#4e4e4e;fill-opacity:1;fill-rule:nonzero;stroke:none"/></g><g clip-path="url(#p)"><path d="M251.24 56.68h3L252.81 62zm.67 6.9h1.8l3-11.03h-1.42l-.75 3h-3.53l-.82-3h-1.43z" style="fill:#4e4e4e;fill-opacity:1;fill-rule:nonzero;stroke:none"/></g><g clip-path="url(#q)"><path d="M260.17 52.55h-1.36v9.84h-2.77v1.2h6.9v-1.2h-2.77z" style="fill:#4e4e4e;fill-opacity:1;fill-rule:nonzero;stroke:none"/></g><g clip-path="url(#r)"><path d="M264.07 63.59h1.35V52.55h-1.35z" style="fill:#4e4e4e;fill-opacity:1;fill-rule:nonzero;stroke:none"/></g><g clip-path="url(#s)"><path d="M268.49 58.03c0-2.55.23-4.58 2.1-4.58s2.18 2.03 2.18 4.58-.3 4.66-2.18 4.66c-1.87 0-2.1-2.1-2.1-4.66m5.63 0c0-2.78-.45-5.7-3.53-5.7-3 0-3.52 2.92-3.52 5.7s.52 5.7 3.52 5.7c3.08 0 3.53-2.92 3.53-5.7" style="fill:#4e4e4e;fill-opacity:1;fill-rule:nonzero;stroke:none"/></g><g clip-path="url(#t)"><path d="M275.77 63.59h1.72l3.68-9.24v9.24h1.35V52.55h-1.8l-3.6 8.93v-8.93h-1.35z" style="fill:#4e4e4e;fill-opacity:1;fill-rule:nonzero;stroke:none"/></g><g clip-path="url(#u)"><path d="M286.12 56.68h2.93L287.7 62h-.08zm.68 6.9h1.8l3-11.03h-1.43l-.82 3h-3.53l-.82-3h-1.43z" style="fill:#4e4e4e;fill-opacity:1;fill-rule:nonzero;stroke:none"/></g><g clip-path="url(#v)"><path d="M292.57 63.59H294v-9.84h4.42v-1.2h-5.85z" style="fill:#4e4e4e;fill-opacity:1;fill-rule:nonzero;stroke:none"/></g><g clip-path="url(#w)"><path d="M185.9 36.48h1.42c2.33 0 2.55 2.4 2.55 4.36 0 2.17-.07 4.42-2.55 4.42h-1.42zm-1.35 9.91h2.92c3.45 0 3.83-2.48 3.83-5.56 0-2.77-.68-5.48-3.68-5.48h-3.07z" style="fill:#4e4e4e;fill-opacity:1;fill-rule:nonzero;stroke:none"/></g><g clip-path="url(#x)"><path d="M192.95 46.4h5.7v-1.21h-4.35v-3.45h4.05v-1.2h-4.05v-3.99h4.5v-1.2h-5.85z" style="fill:#4e4e4e;fill-opacity:1;fill-rule:nonzero;stroke:none"/></g><g clip-path="url(#y)"><path d="M204.8 43.54c0 1.12-.45 1.95-1.72 1.95-1.13 0-1.8-.6-1.8-1.8 0-3.08 5.17-1.28 5.17-5.26 0-2.55-1.87-3.3-3.37-3.3-2.63 0-3.38 1.35-3.38 3.68h1.35c0-1.2.08-2.56 2.1-2.56 1.05 0 1.88.76 1.88 1.96 0 3.08-5.18 1.27-5.18 5.33 0 1.05.45 3.08 3.23 3.08 2.1 0 3.07-1.05 3.07-3.08z" style="fill:#4e4e4e;fill-opacity:1;fill-rule:nonzero;stroke:none"/></g><g clip-path="url(#z)"><path d="M216.2 43.54c0 1.12-.37 1.95-1.72 1.95-1.13 0-1.8-.6-1.8-1.8 0-3.08 5.17-1.28 5.17-5.26 0-2.55-1.8-3.3-3.37-3.3-2.63 0-3.38 1.35-3.38 3.68h1.35c0-1.2.15-2.56 2.1-2.56a1.9 1.9 0 0 1 1.95 1.96c0 3.08-5.25 1.27-5.25 5.33 0 1.05.45 3.08 3.23 3.08 2.1 0 3.07-1.05 3.07-3.08z" style="fill:#4e4e4e;fill-opacity:1;fill-rule:nonzero;stroke:none"/></g><g clip-path="url(#A)"><path d="M226.03 39.1c-.15-2.02-.97-3.97-3.37-3.97-3.15 0-3.53 2.93-3.53 5.7 0 2.86.45 5.79 3.53 5.79 2.25 0 3.22-1.28 3.22-3.46h-1.42c0 1.28-.38 2.33-1.8 2.33-1.88 0-2.1-2.1-2.1-4.65 0-2.48.22-4.59 2.1-4.59 1.65 0 1.87 1.58 1.95 2.86z" style="fill:#4e4e4e;fill-opacity:1;fill-rule:nonzero;stroke:none"/></g><g clip-path="url(#B)"><path d="M227.31 46.4h1.35V35.34h-1.35z" style="fill:#4e4e4e;fill-opacity:1;fill-rule:nonzero;stroke:none"/></g><g clip-path="url(#C)"><path d="M230.46 46.4h5.7v-1.21h-4.35v-3.45h4.12v-1.2h-4.12v-3.99h4.5v-1.2h-5.85z" style="fill:#4e4e4e;fill-opacity:1;fill-rule:nonzero;stroke:none"/></g><g clip-path="url(#D)"><path d="M237.58 46.4h1.81l3.6-9.24h.07v9.23h1.35V35.35h-1.87l-3.53 8.94h-.08v-8.94h-1.35z" style="fill:#4e4e4e;fill-opacity:1;fill-rule:nonzero;stroke:none"/></g><g clip-path="url(#E)"><path d="M252.89 39.1c-.08-2.02-.9-3.97-3.3-3.97-3.15 0-3.6 2.93-3.6 5.7 0 2.86.52 5.79 3.6 5.79 2.25 0 3.15-1.28 3.22-3.46h-1.42c0 1.28-.45 2.33-1.8 2.33-1.88 0-2.18-2.1-2.18-4.65 0-2.48.3-4.59 2.18-4.59 1.65 0 1.87 1.58 1.87 2.86z" style="fill:#4e4e4e;fill-opacity:1;fill-rule:nonzero;stroke:none"/></g><g clip-path="url(#F)"><path d="M254.24 46.4h5.7v-1.21h-4.35v-3.45h4.05v-1.2h-4.05v-3.99h4.5v-1.2h-5.85z" style="fill:#4e4e4e;fill-opacity:1;fill-rule:nonzero;stroke:none"/></g><g clip-path="url(#G)"><path d="M266.09 43.54c0 1.12-.37 1.95-1.72 1.95-1.13 0-1.8-.6-1.8-1.8 0-3.08 5.17-1.28 5.17-5.26 0-2.55-1.87-3.3-3.37-3.3-2.63 0-3.38 1.35-3.38 3.68h1.35c0-1.2.08-2.56 2.1-2.56 1.05 0 1.88.76 1.88 1.96 0 3.08-5.18 1.27-5.18 5.33 0 1.05.45 3.08 3.23 3.08 2.1 0 3.07-1.05 3.07-3.08z" style="fill:#4e4e4e;fill-opacity:1;fill-rule:nonzero;stroke:none"/></g><g clip-path="url(#H)"><path d="M185.9 22.29h2.92l-1.35 5.33h-.07zm.67 6.9h1.8l2.93-11.03h-1.43l-.75 3.08h-3.52l-.83-3.08h-1.42z" style="fill:#4e4e4e;fill-opacity:1;fill-rule:nonzero;stroke:none"/></g><g clip-path="url(#I)"><path d="M193.7 23.94h1.65c.97 0 1.8.68 1.8 2.18 0 1.2-.53 1.95-1.88 1.95h-1.57zm-1.35 5.26h2.85c.9 0 3.37 0 3.37-3.16 0-2.02-1.27-3.23-3.15-3.23h-1.72v-4.65h-1.35z" style="fill:#4e4e4e;fill-opacity:1;fill-rule:nonzero;stroke:none"/></g><g clip-path="url(#J)"><path d="M201.2 23.94h1.58c1.05 0 1.87.68 1.87 2.18 0 1.2-.6 1.95-1.95 1.95h-1.5zm-1.35 5.26h2.78c.97 0 3.45 0 3.45-3.16 0-2.02-1.35-3.23-3.23-3.23h-1.65v-4.65h-1.35z" style="fill:#4e4e4e;fill-opacity:1;fill-rule:nonzero;stroke:none"/></g><g clip-path="url(#K)"><path d="M207.28 29.2h1.35v-9.84h4.5v-1.2h-5.85z" style="fill:#4e4e4e;fill-opacity:1;fill-rule:nonzero;stroke:none"/></g><g clip-path="url(#L)"><path d="M214.33 29.2h1.35V18.16h-1.35z" style="fill:#4e4e4e;fill-opacity:1;fill-rule:nonzero;stroke:none"/></g><g clip-path="url(#M)"><path d="m220.78 20.34.75.82.98-.97c.37.82.45 2.1.45 3.52 0 2.56-.3 4.59-2.18 4.59s-2.1-2.03-2.1-4.59c0-2.55.22-4.65 2.1-4.65.45 0 .75.15 1.05.3zm1.95-1.8a3 3 0 0 0-1.95-.6c-3 0-3.53 3-3.53 5.77 0 2.78.53 5.71 3.53 5.71 3.08 0 3.6-2.93 3.6-5.7 0-1.58-.22-3.23-.9-4.36l1.13-1.05-.83-.75z" style="fill:#4e4e4e;fill-opacity:1;fill-rule:nonzero;stroke:none"/></g><g clip-path="url(#N)"><path d="M225.88 29.2h1.35v-7.74c0-1.65.53-2.4 1.88-2.4 1.42 0 1.87.83 1.87 2.4v7.74h1.35v-7.74c0-2.1-1.05-3.53-3.22-3.53-2.25 0-3.23 1.28-3.23 3.53z" style="fill:#4e4e4e;fill-opacity:1;fill-rule:nonzero;stroke:none"/></g><g clip-path="url(#O)"><path d="M237.28 32.05h1.5l-1.65-2.25h-.97zm-3.22-2.85h5.7V28h-4.35v-3.46h4.13v-1.2h-4.13v-3.98h4.58v-1.2h-5.93z" style="fill:#4e4e4e;fill-opacity:1;fill-rule:nonzero;stroke:none"/></g><g clip-path="url(#P)"><path d="M241.26 29.2h5.7V28h-4.35v-3.46h4.05v-1.2h-4.05v-3.98h4.5v-1.2h-5.85z" style="fill:#4e4e4e;fill-opacity:1;fill-rule:nonzero;stroke:none"/></g><g clip-path="url(#Q)"><path d="M253.11 26.34c0 1.2-.37 1.96-1.72 1.96-1.13 0-1.8-.6-1.8-1.8 0-3.09 5.17-1.2 5.17-5.26 0-2.56-1.87-3.3-3.37-3.3-2.63 0-3.38 1.34-3.38 3.67h1.35c0-1.2.08-2.55 2.1-2.55 1.05 0 1.88.83 1.88 1.95 0 3.16-5.18 1.35-5.18 5.4 0 .98.45 3.01 3.23 3.01 2.1 0 3.07-1.05 3.07-3.08z" style="fill:#4e4e4e;fill-opacity:1;fill-rule:nonzero;stroke:none"/></g><g clip-path="url(#R)"><path d="M184.32 12.08h2.55V3.14h3.75v-2.1h-6.3z" style="fill:#4e4e4e;fill-opacity:1;fill-rule:nonzero;stroke:none"/></g><g clip-path="url(#S)"><path d="m192.95 5.32-2.78 6.76h2.85l1.2-4.13h.08l1.27 4.13h2.78l-2.78-6.76V1.04h-2.62z" style="fill:#4e4e4e;fill-opacity:1;fill-rule:nonzero;stroke:none"/></g><g clip-path="url(#T)"><path d="M202.85 2.54c1.05 0 1.2.98 1.2 3.98s-.15 3.98-1.2 3.98c-.97 0-1.12-.98-1.12-3.98s.15-3.98 1.12-3.98m.08-1.73c-3.45 0-3.91 2.18-3.91 5.71s.46 5.7 3.91 5.7c3.67 0 3.82-2.62 3.82-5.7s-.15-5.7-3.82-5.7" style="fill:#4e4e4e;fill-opacity:1;fill-rule:nonzero;stroke:none"/></g><g clip-path="url(#U)"><path d="M208.48 12.08h3l2.17-7.21v7.2h2.4V1.05h-2.92l-2.25 7.58h-.08V1.04h-2.32z" style="fill:#4e4e4e;fill-opacity:1;fill-rule:nonzero;stroke:none"/></g><g clip-path="url(#V)"><path d="M172.02 63.59h1.2V1.04h-1.2z" style="fill:#4e4e4e;fill-opacity:1;fill-rule:nonzero;stroke:none"/></g><g clip-path="url(#W)"><path d="M0 63.51h16.28V.96H0z" style="fill:#ed2922;fill-opacity:1;fill-rule:nonzero;stroke:none"/></g><g clip-path="url(#X)"><path d="M39.09 63.51 49.66 25h.15v38.52h15.3V.96H47.2L36.23 39.63h-.15V.96h-15.3v62.55z" style="fill:#ed2922;fill-opacity:1;fill-rule:nonzero;stroke:none"/></g><g clip-path="url(#Y)"><path d="M94.67 47a9 9 0 0 1-1.2 4.72 3.8 3.8 0 0 1-3.52 2.03q-2.59-.02-3.83-1.73a6.4 6.4 0 0 1-1.27-3.83c0-2.02.67-3.68 2.02-4.88a18 18 0 0 1 4.95-3.08c2.03-.9 4.13-1.8 6.46-2.7a26 26 0 0 0 6.37-3.53 16.6 16.6 0 0 0 4.95-5.7q2.03-3.6 2.03-9.24c0-6.68-1.95-11.49-5.7-14.5Q100.17-.02 89.35 0q-5.07 0-9 .9c-2.63.52-4.8 1.5-6.6 2.85a12.3 12.3 0 0 0-4.06 5.4c-.97 2.19-1.42 4.96-1.42 8.2v2.24H84.1v-1.5q.02-4.05 1.5-5.63a4.8 4.8 0 0 1 3.82-1.65c1.73 0 3 .6 3.98 1.73a7 7 0 0 1 1.35 4.28c0 2.1-.68 3.68-1.88 4.88a16 16 0 0 1-4.8 3.08c-1.87.82-3.97 1.72-6.15 2.55q-3.4 1.34-6.23 3.45a17 17 0 0 0-4.72 5.56c-1.28 2.25-1.88 5.18-1.88 8.86 0 6.38 1.65 11.26 5.1 14.57 3.38 3.3 8.56 5.03 15.46 5.03q10.68-.02 15.53-4.66c3.15-3 4.72-7.96 4.72-14.64H94.67z" style="fill:#ed2922;fill-opacity:1;fill-rule:nonzero;stroke:none"/></g><g clip-path="url(#Z)"><path d="m135.26 50.75-4.5-26.5h9.15l-4.5 26.5zm10.35 12.76L160.92.96h-17.41l-1.65 10.97h-13.05L127.16.96h-17.11l15.01 62.55z" style="fill:#ed2922;fill-opacity:1;fill-rule:nonzero;stroke:none"/></g><g clip-path="url(#aa)"><path d="M149.89 63.59h11.03v-47z" style="fill:#4e4e4e;fill-opacity:1;fill-rule:nonzero;stroke:none"/></g></g></g></svg>