<svg height="25" role="img" version="1.1" viewBox="0 0 1860 420" xmlns="http://www.w3.org/2000/svg" xmlns:xlink="http://www.w3.org/1999/xlink"><g><circle cx="274" cy="152" r="134" fill="#a0c8ff"/><path d="m274,152H24v250c138.1,0,250-112,250-250Z" fill="#2979e8"/><path d="m238.2,281.1c22.7-37.7,35.8-81.9,35.8-129.1h-134c.1,61.5,41.6,113.4,98.2,129.1Z" fill="#f3f6fa"/><path d="m734.48,96.29v-47.69h-198.48v316.4h52.14v-120.76h120.73v-45.9h-120.73v-102.04h146.34Z" fill="#f3f6fa"/><path d="m760.11,133.71v231.28h51.24v-231.28h-51.24Z" fill="#f3f6fa"/><path d="m1408.93,133.71v135.19h-.03c-1.03,31.58-26.96,56.86-58.8,56.86s-58.82-26.33-58.82-58.82v-133.24h-51.69v140.36c0,26.46,10.72,50.42,28.06,67.75,17.35,17.35,41.29,28.07,67.75,28.07,36.99,0,60.16-16.04,74.41-43.67l7.14,38.77h43.66v-231.28h-51.68Z" fill="#f3f6fa"/><path d="m904.48,364.99v-135.19h.03c1.03-31.58,26.96-56.86,58.8-56.86s58.82,26.33,58.82,58.82v133.23h51.69v-140.36c0-26.46-10.72-50.42-28.06-67.75-17.35-17.35-41.29-28.07-67.75-28.07-36.99,0-60.16,16.04-74.41,43.67l-7.14-38.77h-43.66v231.28h51.68Z" fill="#f3f6fa"/><path d="m1699.01,133.71l-8.02,44.12v-1.78c-17.38-30.31-49.47-47.24-84.22-47.24-71.3,0-116.75,51.25-116.75,119.87s43.67,120.76,114.08,120.76c41.89,0,74.41-20.04,86.89-51.68v47.23h51.69v-231.28h-43.68Zm-82.66,190.06c-41.23,0-74.64-33.42-74.64-74.64s33.41-74.64,74.64-74.64,74.64,33.41,74.64,74.64-33.42,74.64-74.64,74.64Z" fill="#f3f6fa"/><path d="m752.53,78.04c0-18.69,14.76-33.45,33.45-33.45s32.96,14.76,32.96,33.45-14.76,32.95-32.96,32.95-33.45-14.76-33.45-32.95Z" fill="#f3f6fa"/><path d="m1166.04,179.61h51.27v-45.9h-51.27v-67.29l-50.78,9.23v58.06h-36.09v45.9h36.09v134.6c0,28.04,22.73,50.78,50.78,50.78h51.27v-50.78h-51.27v-134.6Z" fill="#f3f6fa"/><path d="m1834.91,48.83v-.23s-50.78,9.23-50.78,9.23v307.15h51.01V48.6l-.23.23Z" fill="#f3f6fa"/></g></svg>
